<svg xmlns="http://www.w3.org/2000/svg" width="860" height="350" viewBox="0 0 860 350"><defs><marker id="a" markerWidth="10" markerHeight="8" refX="9" refY="4" orient="auto"><path d="M0,0 L10,4 L0,8 z" fill="#334155"/></marker></defs><rect width="100%" height="100%" fill="#fff"/><rect x="40" y="180" width="130" height="50" rx="12" fill="#dbeafe" stroke="#2563eb" stroke-width="2"/><text x="105.0" y="205.0" text-anchor="middle" dominant-baseline="middle" font-family="Arial" font-size="12" font-weight="600" fill="#0f172a">Admin client</text><rect x="225" y="180" width="150" height="50" rx="12" fill="#ede9fe" stroke="#7c3aed" stroke-width="2"/><text x="300.0" y="205.0" text-anchor="middle" dominant-baseline="middle" font-family="Arial" font-size="12" font-weight="600" fill="#0f172a">Local-in policy</text><rect x="440" y="65" width="100" height="48" rx="12" fill="#dcfce7" stroke="#16a34a" stroke-width="2"/><text x="490.0" y="89.0" text-anchor="middle" dominant-baseline="middle" font-family="Arial" font-size="12" font-weight="600" fill="#0f172a">WAD</text><rect x="645" y="65" width="150" height="48" rx="12" fill="#fef3c7" stroke="#d97706" stroke-width="2"/><text x="720.0" y="89.0" text-anchor="middle" dominant-baseline="middle" font-family="Arial" font-size="12" font-weight="600" fill="#0f172a">FortiGuard API</text><rect x="440" y="250" width="120" height="50" rx="12" fill="#fee2e2" stroke="#dc2626" stroke-width="2"/><text x="500.0" y="275.0" text-anchor="middle" dominant-baseline="middle" font-family="Arial" font-size="12" font-weight="600" fill="#0f172a">IPS/FMWP</text><rect x="675" y="250" width="145" height="50" rx="12" fill="#cffafe" stroke="#0891b2" stroke-width="2"/><text x="747.5" y="275.0" text-anchor="middle" dominant-baseline="middle" font-family="Arial" font-size="12" font-weight="600" fill="#0f172a">GUI / SSH service</text><path d="M170,205.0 L197.5,205.0 L197.5,205.0 L225,205.0" fill="none" stroke="#334155" stroke-width="2" marker-end="url(#a)"/><rect x="142.5" y="188.0" width="110" height="18" rx="5" fill="#fff" opacity=".94"/><text x="197.5" y="198.0" text-anchor="middle" font-family="Arial" font-size="9.5" fill="#334155">new mgmt session</text><path d="M375,205.0 L407.5,205.0 L407.5,89.0 L440,89.0" fill="none" stroke="#334155" stroke-width="2" marker-end="url(#a)"/><rect x="352.5" y="130.0" width="110" height="18" rx="5" fill="#fff" opacity=".94"/><text x="407.5" y="140.0" text-anchor="middle" font-family="Arial" font-size="9.5" fill="#334155">virtual-patch eligible</text><path d="M540,89.0 L592.5,89.0 L592.5,89.0 L645,89.0" fill="none" stroke="#334155" stroke-width="2" marker-end="url(#a)"/><rect x="537.5" y="72.0" width="110" height="18" rx="5" fill="#fff" opacity=".94"/><text x="592.5" y="82.0" text-anchor="middle" font-family="Arial" font-size="9.5" fill="#334155">query build CVEs</text><path d="M645,89.0 L592.5,89.0 L592.5,89.0 L540,89.0" fill="none" stroke="#334155" stroke-width="2" marker-end="url(#a)"/><rect x="537.5" y="72.0" width="110" height="18" rx="5" fill="#fff" opacity=".94"/><text x="592.5" y="82.0" text-anchor="middle" font-family="Arial" font-size="9.5" fill="#334155">applicable items</text><path d="M490.0,113 L490.0,181.5 L500.0,181.5 L500.0,250" fill="none" stroke="#334155" stroke-width="2" marker-end="url(#a)"/><rect x="440.0" y="164.5" width="110" height="18" rx="5" fill="#fff" opacity=".94"/><text x="495.0" y="174.5" text-anchor="middle" font-family="Arial" font-size="9.5" fill="#334155">enable rules</text><path d="M375,205.0 L407.5,205.0 L407.5,275.0 L440,275.0" fill="none" stroke="#334155" stroke-width="2" marker-end="url(#a)"/><rect x="352.5" y="223.0" width="110" height="18" rx="5" fill="#fff" opacity=".94"/><text x="407.5" y="233.0" text-anchor="middle" font-family="Arial" font-size="9.5" fill="#334155">inspect tagged flow</text><path d="M560,275.0 L617.5,275.0 L617.5,275.0 L675,275.0" fill="none" stroke="#334155" stroke-width="2" marker-end="url(#a)"/><rect x="562.5" y="258.0" width="110" height="18" rx="5" fill="#fff" opacity=".94"/><text x="617.5" y="268.0" text-anchor="middle" font-family="Arial" font-size="9.5" fill="#334155">pass / block</text></svg>