<svg xmlns="http://www.w3.org/2000/svg" viewBox="0 0 1100 500"><defs><marker id="a" markerWidth="10" markerHeight="10" refX="9" refY="3" orient="auto"><path d="M0 0L0 6L9 3z" fill="#334155"/></marker></defs><rect width="1100" height="500" fill="white"/><text x="30" y="38" font-family="Arial" font-size="24" font-weight="700">FortiAP Bonjour Micro-Location</text><g font-family="Arial" font-size="14" text-anchor="middle"><rect x="40" y="200" width="160" height="70" rx="10" fill="#dbeafe" stroke="#334155"/><text x="120" y="240">mDNS publisher</text><rect x="270" y="200" width="180" height="70" rx="10" fill="#fef3c7" stroke="#334155"/><text x="360" y="230">Bonjour profile</text><text x="360" y="250">VLAN + services</text><rect x="530" y="90" width="180" height="70" rx="10" fill="#dcfce7" stroke="#334155"/><text x="620" y="120">FortiAP Group A</text><text x="620" y="140">Location A</text><rect x="530" y="320" width="180" height="70" rx="10" fill="#fee2e2" stroke="#334155"/><text x="620" y="350">FortiAP Group B</text><text x="620" y="370">Location B</text><rect x="800" y="90" width="180" height="70" rx="10" fill="#cffafe" stroke="#334155"/><text x="890" y="120">bjallow</text><text x="890" y="140">allowed services</text><rect x="800" y="320" width="180" height="70" rx="10" fill="#fae8ff" stroke="#334155"/><text x="890" y="350">Other location</text><text x="890" y="370">suppressed discovery</text></g><g stroke="#334155" stroke-width="3" fill="none" marker-end="url(#a)"><path d="M200 235L270 235"/><path d="M450 225L530 125"/><path d="M450 245L530 355"/><path d="M710 125L800 125"/></g><path d="M710 355L800 355" stroke="#dc2626" stroke-width="4" stroke-dasharray="8 6"/><text x="747" y="345" font-family="Arial" font-size="13" fill="#dc2626">location boundary</text></svg>