<svg xmlns="http://www.w3.org/2000/svg" viewBox="0 0 1100 420"><defs><marker id="a" markerWidth="10" markerHeight="10" refX="9" refY="3" orient="auto"><path d="M0 0L0 6L9 3z" fill="#334155"/></marker></defs><rect width="1100" height="420" fill="white"/><text x="30" y="38" font-family="Arial" font-size="24" font-weight="700">FortiAnalyzer log integrity boundary</text><g font-family="Arial" font-size="14" text-anchor="middle"><rect x="35" y="175" width="145" height="65" rx="10" fill="#dbeafe" stroke="#334155"/><text x="108" y="213">Incoming logs</text><rect x="225" y="175" width="145" height="65" rx="10" fill="#cffafe" stroke="#334155"/><text x="298" y="213">Rolled log file</text><rect x="415" y="80" width="150" height="65" rx="10" fill="#fef3c7" stroke="#334155"/><text x="490" y="118">MD5 / MD5-auth</text><rect x="415" y="275" width="150" height="65" rx="10" fill="#fae8ff" stroke="#334155"/><text x="490" y="313">Recorded digest</text><rect x="650" y="175" width="155" height="65" rx="10" fill="#fee2e2" stroke="#334155"/><text x="728" y="213">Recompute digest</text><rect x="875" y="175" width="160" height="65" rx="10" fill="#dcfce7" stroke="#334155"/><text x="955" y="203">Integrity verdict</text><text x="955" y="222">match / mismatch</text></g><g stroke="#334155" stroke-width="3" fill="none" marker-end="url(#a)"><path d="M180 208L225 208"/><path d="M370 200L415 115"/><path d="M490 145L490 275"/><path d="M565 307L650 215"/><path d="M805 208L875 208"/></g></svg>